<?xml version="1.0" encoding="UTF-8" standalone="no"?>
<svg
   xmlns:dc="http://purl.org/dc/elements/1.1/"
   xmlns:cc="http://creativecommons.org/ns#"
   xmlns:rdf="http://www.w3.org/1999/02/22-rdf-syntax-ns#"
   xmlns:svg="http://www.w3.org/2000/svg"
   xmlns="http://www.w3.org/2000/svg"
   xmlns:sodipodi="http://sodipodi.sourceforge.net/DTD/sodipodi-0.dtd"
   xmlns:inkscape="http://www.inkscape.org/namespaces/inkscape"
   width="1756.8053"
   height="2096.2971"
   viewBox="0 0 131.48317 156.87346"
   version="1.1"
   id="svg12"
   sodipodi:docname="wwf.svg"
   inkscape:version="1.0.1 (3bc2e813f5, 2020-09-07)">
  <metadata
     id="metadata18">
    <rdf:RDF>
      <cc:Work
         rdf:about="">
        <dc:format>image/svg+xml</dc:format>
        <dc:type
           rdf:resource="http://purl.org/dc/dcmitype/StillImage" />
        <dc:title></dc:title>
      </cc:Work>
    </rdf:RDF>
  </metadata>
  <defs
     id="defs16" />
  <sodipodi:namedview
     pagecolor="#ffffff"
     bordercolor="#666666"
     borderopacity="1"
     objecttolerance="10"
     gridtolerance="10"
     guidetolerance="10"
     inkscape:pageopacity="0"
     inkscape:pageshadow="2"
     inkscape:window-width="2560"
     inkscape:window-height="1385"
     id="namedview14"
     showgrid="false"
     inkscape:zoom="0.08"
     inkscape:cx="-708.86057"
     inkscape:cy="2279.8331"
     inkscape:window-x="0"
     inkscape:window-y="27"
     inkscape:window-maximized="1"
     inkscape:current-layer="svg12"
     fit-margin-top="0"
     fit-margin-left="0"
     fit-margin-right="0"
     fit-margin-bottom="0" />
  <path
     d="m 87.151979,76.403278 c 3.969,4.365 4.364,17.856 14.482001,12.499 5.951,-3.174 5.951,-16.665 -2.182001,-21.625 -6.549,-3.77 -10.119,1.389 -12.5,7.737 -0.197,0.595 -0.197,0.992 0.2,1.389 z m -15.673,-2.182 c -4.364,3.373 -7.142,13.094 -14.879,9.721 -6.348,-3.174 -6.943,-15.475 3.968,-21.228 7.539,-3.571 11.309,3.373 11.309,10.713 -0.001,0.198 -0.199,0.595 -0.398,0.794 z m 10.317,24.402 c 4.166,-0.396 3.174,-4.364 0,-5.158 -2.778,-0.992 -6.944,-1.587 -10.118,-1.389 -5.357,0 -5.158,4.166 -2.382,4.96 2.183,0.595 3.57,0.793 5.356,3.174002 1.588,3.175 0.795,-0.992002 7.144,-1.587002 z m 19.641001,-69.041 c 5.158,-8.729 14.284,-7.142 18.848,-2.777 4.961,4.761 5.952,10.316 3.969,14.086 -2.58,5.158 -9.324,11.309 -13.689,5.357 -1.982,-2.777 -5.952,-5.952 -8.332,-6.746 -3.376001,-1.587 -3.970001,-4.564 -0.796,-9.92 z"
     fill="#272728"
     id="path2"
     sodipodi:nodetypes="cccccccccccccccccccccc" />
  <path
     d="m 122.26898,67.872278 c -0.396,-1.587 -1.191,-1.389 -1.191,-0.198 0.397,15.871 -9.125,32.934002 -29.361001,33.132002 -5.158,0 -3.57,8.135 -13.094,3.968 -6.746,-4.563 -10.714,4.563 -15.476,-5.158002 -1.19,-2.778 -2.778,-3.968 -4.762,-4.563 -20.038,-4.96 -26.387,-32.537 -8.729,-54.757 3.373,2.183 4.761,2.579 8.531,-0.992 1.786,-1.786 5.158,-3.77 6.943,-4.365 4.166,-1.587 6.548,-3.373 2.777,-11.507 -1.736,-3.832 -4.101,-5.873 -6.621,-6.746 h -6.739 a 15.465,15.465 0 0 0 -5.289,2.778 c -5.158,4.166 -8.531,10.713 -2.184,18.451 -17.853,12.102 -21.027,26.981 -20.631,40.075 0.396,13.689 -2.976,12.499 1.389,26.386002 0.396,1.191 -0.595,1.191 -1.19,0.795 -18.6489997,-11.904002 -28.7669997,-48.409002 0.397,-68.447002 0.595,-0.595 0.397,-1.389 -1.984,0 -25.19699969,13.293 -27.5769997,39.084 -23.4109997,56.543 1.984,8.332002 -0.99199999,9.920002 2.183,21.030002 7.5389997,23.014 13.8869997,24.996 23.0129997,25.593 16.467,0 5.158,-9.126 5.952,-20.435 0,-0.795 0.794,-0.992 1.19,0.396 9.126,20.235 15.475,38.687 39.282,36.901 13.688,-1.785 6.149,-8.531 5.157,-12.5 -10.117,-33.527 14.482,-41.463 7.539,-8.729 -4.562,18.848 9.92,16.863 20.236001,10.118 10.516,-6.744 23.612,-52.573002 16.073,-77.769002 z M 82.191979,107.74928 c -2.381,5.953 -14.086,3.969 -14.483,-1.983 0,-0.198 0.397,-0.198 0.397,0 5.356,1.19 10.315,1.785 13.688,1.785 0.2,0 0.398,-0.198 0.398,0.198 z"
     fill="#272728"
     id="path4" />
  <path
     style="display:inline;overflow:visible;visibility:visible;fill:#272728;fill-opacity:1;fill-rule:evenodd;stroke:#ffffff;stroke-width:1.49684;stroke-miterlimit:4;stroke-dasharray:none;stroke-opacity:1;marker:none;enable-background:accumulate"
     id="path2397"
     d="m 114.95155,1.1077343 c -1.85784,-0.79191999 -4.2085,-0.26902999 -5.36208,1.23796 -2.97132,-1.26556 -7.13743,-0.92229 -9.818789,-0.43609 -1.983164,0.3596 -3.908527,1.90537 -5.574854,2.09257 -10.985217,1.23411 -11.869086,8.9378617 -17.06881,14.1260687 -1.072209,1.069833 -1.78853,3.354797 -2.972609,4.240449 -2.481838,1.856319 -11.775361,5.153546 -14.023467,7.174086 -0.370102,0.332661 0.09458,1.379732 0.443027,1.659431 2.108856,1.692832 4.974115,2.946893 7.216708,3.426494 26.400905,6.385601 22.100611,4.731053 52.159664,15.732216 1.96957,1.5493 6.96999,4.669078 9.44419,5.991982 0.58204,0.311199 1.49785,-0.304886 1.32068,-0.781659 -1.85247,-4.984931 -3.96389,-11.744826 -5.25239,-14.573554 0.21743,-1.147921 1.50114,-2.705752 1.39585,-3.820524 -0.39912,-4.226398 -0.54233,-6.925996 1.06885,-13.639381 0.57123,-2.38015 -5.54903,-11.843903 -9.95742,-16.0265087 0.56799,-2.02794 -0.73947,-5.18926 -2.64265,-6.22182 -0.11892,-0.0646 -0.25214,-0.12871 -0.37586,-0.18182 z"
     inkscape:connector-curvature="0"
     sodipodi:nodetypes="ccssssssccsscsscccc" />
  <g
     transform="matrix(0.00372328,-0.00113297,-0.00113297,-0.00372328,53.802747,159.96486)"
     fill="#000000"
     stroke="none"
     id="g860"
     style="fill:#272728;fill-opacity:1;stroke:#ffffff;stroke-width:150;stroke-miterlimit:4;stroke-dasharray:none;stroke-opacity:1">
    <path
       d="M 4485,12789 C 3509,12723 2588,12368 1820,11761 1167,11244 639,10534 337,9765 -114,8614 -110,7351 350,6200 c 56,-142 206,-450 287,-590 386,-667 929,-1238 1574,-1653 277,-177 603,-341 909,-455 1075,-402 2288,-402 3360,0 889,333 1660,925 2224,1707 200,277 424,682 545,987 379,958 451,1962 210,2952 -199,819 -625,1584 -1224,2201 -760,782 -1778,1286 -2860,1415 -288,35 -614,44 -890,25 z m 765,-1219 c 798,-106 1492,-442 2064,-1000 605,-590 964,-1333 1068,-2205 16,-141 17,-585 0,-730 -83,-724 -336,-1335 -786,-1900 -161,-202 -476,-499 -701,-662 -438,-315 -965,-535 -1490,-622 -235,-39 -327,-46 -605,-46 -339,0 -555,24 -847,96 -1398,341 -2458,1479 -2702,2899 -36,209 -46,348 -46,610 1,488 81,899 263,1350 231,573 652,1122 1154,1503 574,435 1184,663 1958,731 116,10 522,-4 670,-24 z"
       id="path856"
       style="fill:#272728;fill-opacity:1;stroke:#ffffff;stroke-width:150;stroke-miterlimit:4;stroke-dasharray:none;stroke-opacity:1" />
    <path
       d="M 9558,5048 C 9140,4453 8388,3718 7750,3281 c -58,-40 -106,-75 -108,-80 -3,-10 3178,-2913 3257,-2972 351,-258 829,-299 1226,-105 288,141 509,390 612,691 32,95 63,279 63,378 0,277 -112,580 -284,774 -243,274 -2808,3137 -2835,3166 l -36,37 z"
       id="path858"
       style="fill:#272728;fill-opacity:1;stroke:#ffffff;stroke-width:150;stroke-miterlimit:4;stroke-dasharray:none;stroke-opacity:1" />
  </g>
  <circle
     style="fill:#ffffff;fill-opacity:1;stroke:#ffffff;stroke-width:2.19638;stroke-miterlimit:4;stroke-dasharray:none;stroke-opacity:1"
     id="path881"
     cx="62.84948"
     cy="124.94071"
     r="13.127107" />
</svg>
