<?xml version="1.0" encoding="UTF-8" standalone="no"?>
<svg
   xmlns:dc="http://purl.org/dc/elements/1.1/"
   xmlns:cc="http://creativecommons.org/ns#"
   xmlns:rdf="http://www.w3.org/1999/02/22-rdf-syntax-ns#"
   xmlns:svg="http://www.w3.org/2000/svg"
   xmlns="http://www.w3.org/2000/svg"
   xmlns:sodipodi="http://sodipodi.sourceforge.net/DTD/sodipodi-0.dtd"
   xmlns:inkscape="http://www.inkscape.org/namespaces/inkscape"
   version="1.1"
   id="svg2"
   xml:space="preserve"
   width="389.18829"
   height="229.86566"
   viewBox="0 0 389.18829 229.86566"
   sodipodi:docname="logo.svg"
   inkscape:version="1.0.1 (3bc2e813f5, 2020-09-07)"><metadata
     id="metadata8"><rdf:RDF><cc:Work
         rdf:about=""><dc:format>image/svg+xml</dc:format><dc:type
           rdf:resource="http://purl.org/dc/dcmitype/StillImage" /><dc:title></dc:title></cc:Work></rdf:RDF></metadata><defs
     id="defs6" /><sodipodi:namedview
     pagecolor="#ffffff"
     bordercolor="#666666"
     borderopacity="1"
     objecttolerance="10"
     gridtolerance="10"
     guidetolerance="10"
     inkscape:pageopacity="0"
     inkscape:pageshadow="2"
     inkscape:window-width="2560"
     inkscape:window-height="1385"
     id="namedview4"
     showgrid="false"
     fit-margin-top="0"
     fit-margin-left="0"
     fit-margin-right="0"
     fit-margin-bottom="0"
     inkscape:zoom="1.6370233"
     inkscape:cx="194.75082"
     inkscape:cy="64.083013"
     inkscape:window-x="0"
     inkscape:window-y="27"
     inkscape:window-maximized="1"
     inkscape:current-layer="g10" /><g
     id="g10"
     inkscape:groupmode="layer"
     inkscape:label="ink_ext_XXXXXX"
     transform="matrix(1.3333333,0,0,-1.3333333,-447.78992,632.85503)"><path
       d="m 541.61311,367.17308 c 4.415,3.07 5.359,7.498 3.35,12.088 -2.873,6.564 -11.13,12.086 -20.62,10.901 -12.344,-1.542 -17.606,-9.995 -19.845,-16.431 -4.654,-13.381 4.85,-31.027 21.436,-24.151 7.567,3.137 4.583,9.874 15.679,17.593"
       style="fill:#231f20;fill-opacity:1;fill-rule:nonzero;stroke:none;stroke-width:0.1"
       id="path34" /><path
       d="m 556.60411,357.02608 c -3.414,-4.711 6.964,-13.685 10.457,-9.281 4.286,5.403 5.896,13.426 -0.936,13.396 0,0 -6.727,-0.256 -9.521,-4.115"
       style="fill:#231f20;fill-opacity:1;fill-rule:nonzero;stroke:none;stroke-width:0.1"
       id="path36" /><g
       transform="matrix(0.00143744,-0.00405394,0.00405394,0.00143744,566.63773,389.2943)"
       fill="#000000"
       stroke="none"
       id="g909"
       style="fill:#231f20;fill-opacity:1;stroke:#ffffff;stroke-width:0;stroke-miterlimit:4;stroke-dasharray:none;stroke-opacity:1"><path
         d="M 4485,12789 C 3509,12723 2588,12368 1820,11761 1167,11244 639,10534 337,9765 -114,8614 -110,7351 350,6200 c 56,-142 206,-450 287,-590 386,-667 929,-1238 1574,-1653 277,-177 603,-341 909,-455 1075,-402 2288,-402 3360,0 889,333 1660,925 2224,1707 200,277 424,682 545,987 379,958 451,1962 210,2952 -199,819 -625,1584 -1224,2201 -760,782 -1778,1286 -2860,1415 -288,35 -614,44 -890,25 z m 765,-1219 c 798,-106 1492,-442 2064,-1000 605,-590 964,-1333 1068,-2205 16,-141 17,-585 0,-730 -83,-724 -336,-1335 -786,-1900 -161,-202 -476,-499 -701,-662 -438,-315 -965,-535 -1490,-622 -235,-39 -327,-46 -605,-46 -339,0 -555,24 -847,96 -1398,341 -2458,1479 -2702,2899 -36,209 -46,348 -46,610 1,488 81,899 263,1350 231,573 652,1122 1154,1503 574,435 1184,663 1958,731 116,10 522,-4 670,-24 z"
         id="path905"
         style="fill:#231f20;fill-opacity:1;stroke:#ffffff;stroke-width:0;stroke-miterlimit:4;stroke-dasharray:none;stroke-opacity:1" /><path
         d="M 9558,5048 C 9140,4453 8388,3718 7750,3281 c -58,-40 -106,-75 -108,-80 -3,-10 3178,-2913 3257,-2972 351,-258 829,-299 1226,-105 288,141 509,390 612,691 32,95 63,279 63,378 0,277 -112,580 -284,774 -243,274 -2808,3137 -2835,3166 l -36,37 z"
         id="path907"
         style="fill:#231f20;fill-opacity:1;stroke:#ffffff;stroke-width:0;stroke-miterlimit:4;stroke-dasharray:none;stroke-opacity:1" /></g><path
       d="m 573.65711,350.14308 c -2.244,-9.031 -9.864,-15.245 -14.124,-18.266 -10.48,-7.435 -21.776,-11.923 -30.403,-13.618 0.751,9.86 -5.54,21.908 -19.782,24.445 -12.5,2.227 -17.845,0.527 -31.15,2.602 -10.033,1.562 -24.166,12.67 -27.113,30.818 -2.013,12.402 -1.348,20.185 -8.061,21.504 -10.209,2.006 -16.359,-17.797 -15.339,-32.42 1.636,-23.448 10.146,-44.055 26.933,-54.848 -13.977,0 -34.621,0.006 -45.667,0.008 13.872,11.283 13.831,30.389 6.157,40.338 -6.745,8.744 -17.035,7.824 -24.435,5.548 -2.376,7.741 -4.435,15.188 -5.272,18.688 -4.326,18.078 -24.803,25.614 -38.702,12.576 3.772,36.67 35.001,67.057 75.116,67.057 19.986,0 39.161,-8.037 53.175,-21.913 -4.452,-5.517 -4.392,-12.739 -4.374,-17.408 0.056,-14.005 12.326,-14.982 16.116,-8.678 4.484,7.46 2.123,5.151 9.845,12.476 1.906,1.806 2.723,4.47 2.633,7.269 24.688,2.209 46.692,-11.941 55.905,-32.892 1.725,-5.82 -2.591,-9.151 -2.125,-15.762 0.332,-4.752 3.755,-6.535 8.769,-8.569 0.789,-0.435 1.727,-0.845 2.861,-1.238 6.789,-2.346 10.717,-10.961 9.037,-17.717 z m -173.814,-39.449 c -10.459,-5.297 -19.069,-5.248 -22.684,-0.285 -4.904,6.73 0.819,19.406 13.371,26.406 10.278,5.731 17.334,4.442 20.668,0.881 6.799,-7.26 1.396,-20.543 -11.355,-27.002 z m 175.873,53.863 c -4.257,6.675 -9.578,7.717 -11.241,8.516 -0.567,21.172 -12.174,39.371 -29.03,49.563 1.735,8.32 -3.494,19.877 -17.129,18.842 -8.348,-0.633 -13.098,-5.215 -16.102,-10.171 -1.33,-0.044 -2.663,-0.138 -3.994,-0.27 -3.089,7.86 -11.276,10.769 -19.72,4.879 -14.915,14.843 -35.366,23.446 -56.685,23.446 -23.982,0 -46.658,-10.344 -62.297,-29.381 -3.659,3.348 -9.276,5.971 -16.324,1.35 -11.952,-7.835 -7.863,-25.024 1.815,-28.225 -2.223,-7.201 -3.406,-14.724 -3.483,-22.395 -2.495,-4.646 -4.326,-10.978 -4.709,-19.687 -0.875,-19.922 5.606,-57.359 42.908,-58.734 8.143,-0.301 15.302,0.814 21.223,3.293 10.281,-0.006 49.482,-0.027 63.471,-0.022 5.779,-2.06 12.273,-3.193 19.543,-3.193 23.183,0 39.293,-1.744 44.056,10.777 7.995,1.36 19.287,4.44 29.66,11.392 14.777,0.549 25.268,1.513 30.224,8.624 6.088,8.733 2.521,25.816 -12.186,31.396"
       style="fill:#231f20;fill-opacity:1;fill-rule:nonzero;stroke:none;stroke-width:0.1"
       id="path38" /><path
       style="display:inline;overflow:visible;visibility:visible;fill:#231f20;fill-opacity:1;fill-rule:evenodd;stroke:#ffffff;stroke-width:3.00000008;stroke-miterlimit:4;stroke-dasharray:none;stroke-opacity:1;marker:none;enable-background:accumulate"
       id="path2397"
       d="m 560.05909,467.78864 c -2.84454,2.05411 -6.85127,2.42569 -9.15184,0.78158 -4.54963,3.28377 -11.49482,4.79463 -16.03576,5.37952 -3.35855,0.43261 -6.93911,-0.89537 -9.73034,-0.36397 -18.4011,3.5032 -21.91462,-7.32291 -31.85539,-12.38995 -2.04984,-1.04484 -3.83909,-4.03655 -6.02372,-4.75832 -4.57899,-1.51284 -20.74874,-1.84035 -24.98715,-3.70596 -0.69775,-0.30712 -0.21322,-2.06109 0.28517,-2.63795 3.01661,-3.49132 7.39484,-6.70709 10.95579,-8.49084 41.72359,-22.07931 35.09175,-17.58543 81.59926,-48.17367 2.82584,-3.21441 10.21774,-10.18676 13.93425,-13.3142 0.8743,-0.73571 2.54555,-0.27815 2.38154,0.50389 -1.71474,8.17634 -3.38093,19.07048 -4.74435,23.8248 0.66458,1.57177 3.1928,3.22729 3.31764,4.9065 0.47329,6.36637 0.95945,10.37889 5.4046,19.40707 1.576,3.20085 -5.96208,19.98085 -12.09594,28.21974 1.47647,2.68794 0.17085,7.93721 -2.68394,10.36473 -0.17843,0.15171 -0.38022,0.31 -0.56982,0.44698 z"
       inkscape:connector-curvature="0"
       sodipodi:nodetypes="ccssssssccsscsscccc" /></g></svg>
